<svg width="31" height="31" viewBox="0 0 31 31" fill="none" xmlns="http://www.w3.org/2000/svg">
<path d="M26.35 3.1H23.25V1.55C23.25 1.13891 23.0867 0.744666 22.796 0.453984C22.5053 0.163303 22.1111 0 21.7 0C21.2889 0 20.8947 0.163303 20.604 0.453984C20.3133 0.744666 20.15 1.13891 20.15 1.55V3.1H10.85V1.55C10.85 1.13891 10.6867 0.744666 10.396 0.453984C10.1053 0.163303 9.71109 0 9.3 0C8.88891 0 8.49467 0.163303 8.20398 0.453984C7.9133 0.744666 7.75 1.13891 7.75 1.55V3.1H4.65C3.41674 3.1 2.234 3.58991 1.36195 4.46195C0.489909 5.334 0 6.51674 0 7.75V26.35C0 27.5833 0.489909 28.766 1.36195 29.638C2.234 30.5101 3.41674 31 4.65 31H26.35C27.5833 31 28.766 30.5101 29.638 29.638C30.5101 28.766 31 27.5833 31 26.35V7.75C31 6.51674 30.5101 5.334 29.638 4.46195C28.766 3.58991 27.5833 3.1 26.35 3.1ZM27.9 26.35C27.9 26.7611 27.7367 27.1553 27.446 27.446C27.1553 27.7367 26.7611 27.9 26.35 27.9H4.65C4.23891 27.9 3.84467 27.7367 3.55398 27.446C3.2633 27.1553 3.1 26.7611 3.1 26.35V15.5H27.9V26.35ZM27.9 12.4H3.1V7.75C3.1 7.33891 3.2633 6.94467 3.55398 6.65398C3.84467 6.3633 4.23891 6.2 4.65 6.2H7.75V7.75C7.75 8.16109 7.9133 8.55533 8.20398 8.84601C8.49467 9.1367 8.88891 9.3 9.3 9.3C9.71109 9.3 10.1053 9.1367 10.396 8.84601C10.6867 8.55533 10.85 8.16109 10.85 7.75V6.2H20.15V7.75C20.15 8.16109 20.3133 8.55533 20.604 8.84601C20.8947 9.1367 21.2889 9.3 21.7 9.3C22.1111 9.3 22.5053 9.1367 22.796 8.84601C23.0867 8.55533 23.25 8.16109 23.25 7.75V6.2H26.35C26.7611 6.2 27.1553 6.3633 27.446 6.65398C27.7367 6.94467 27.9 7.33891 27.9 7.75V12.4Z" fill="white"/>
</svg>
