<svg width="213" height="159" viewBox="0 0 213 159" fill="none" xmlns="http://www.w3.org/2000/svg">
<path d="M0.981422 148L10.7094 120.26H18.2714L28.3034 148H23.5914L14.8134 123.3L16.6754 124.174H12.0774L14.0534 123.3L5.54142 148H0.981422ZM7.28942 140.172L8.73342 136.22H20.3614L21.8434 140.172H7.28942ZM32.4321 148V127.518H35.9661V136.296H35.5481C35.5481 134.269 35.8141 132.559 36.3461 131.166C36.9034 129.773 37.7394 128.721 38.8541 128.012C39.9687 127.277 41.3494 126.91 42.9961 126.91H43.1861C45.7194 126.91 47.6067 127.708 48.8481 129.304C50.0894 130.9 50.7101 133.231 50.7101 136.296V148H46.2641V135.688C46.2641 134.269 45.8587 133.129 45.0481 132.268C44.2374 131.381 43.1227 130.938 41.7041 130.938C40.2601 130.938 39.0947 131.394 38.2081 132.306C37.3214 133.193 36.8781 134.383 36.8781 135.878V148H32.4321ZM56.8871 148V127.518H60.4211V136.296H60.0031C60.0031 134.269 60.2691 132.559 60.8011 131.166C61.3585 129.773 62.1945 128.721 63.3091 128.012C64.4238 127.277 65.8045 126.91 67.4511 126.91H67.6411C70.1745 126.91 72.0618 127.708 73.3031 129.304C74.5445 130.9 75.1651 133.231 75.1651 136.296V148H70.7191V135.688C70.7191 134.269 70.3138 133.129 69.5031 132.268C68.6925 131.381 67.5778 130.938 66.1591 130.938C64.7151 130.938 63.5498 131.394 62.6631 132.306C61.7765 133.193 61.3331 134.383 61.3331 135.878V148H56.8871ZM93.6922 148V141.882H92.9702V134.966C92.9702 133.699 92.6409 132.737 91.9822 132.078C91.3236 131.419 90.3482 131.09 89.0562 131.09C88.3469 131.09 87.5616 131.103 86.7002 131.128C85.8389 131.153 84.9902 131.191 84.1542 131.242C83.3436 131.267 82.6216 131.305 81.9882 131.356V127.518C82.5456 127.467 83.1536 127.429 83.8122 127.404C84.4962 127.353 85.1929 127.315 85.9022 127.29C86.6369 127.265 87.3336 127.252 87.9922 127.252C90.0696 127.252 91.7922 127.518 93.1602 128.05C94.5282 128.582 95.5416 129.431 96.2002 130.596C96.8842 131.736 97.2262 133.269 97.2262 135.194V148H93.6922ZM87.0422 148.532C85.5476 148.532 84.2429 148.279 83.1282 147.772C82.0136 147.24 81.1522 146.48 80.5442 145.492C79.9362 144.479 79.6322 143.275 79.6322 141.882C79.6322 140.413 79.9742 139.197 80.6582 138.234C81.3676 137.271 82.3682 136.549 83.6602 136.068C84.9522 135.587 86.4976 135.346 88.2962 135.346H93.4262V138.272H88.1822C86.8396 138.272 85.8136 138.601 85.1042 139.26C84.3949 139.893 84.0402 140.729 84.0402 141.768C84.0402 142.807 84.3949 143.643 85.1042 144.276C85.8136 144.884 86.8396 145.188 88.1822 145.188C88.9676 145.188 89.7149 145.049 90.4242 144.77C91.1336 144.466 91.7162 143.972 92.1722 143.288C92.6536 142.604 92.9196 141.641 92.9702 140.4L94.1102 141.882C93.9836 143.326 93.6289 144.542 93.0462 145.53C92.4889 146.493 91.7036 147.24 90.6902 147.772C89.7022 148.279 88.4862 148.532 87.0422 148.532ZM103.422 155.6V127.518H106.956V136.372L106.272 136.334C106.399 134.181 106.855 132.407 107.64 131.014C108.426 129.621 109.464 128.582 110.756 127.898C112.048 127.214 113.467 126.872 115.012 126.872C116.482 126.872 117.812 127.151 119.002 127.708C120.193 128.24 121.219 128.987 122.08 129.95C122.942 130.913 123.588 132.027 124.018 133.294C124.474 134.561 124.702 135.929 124.702 137.398V138.12C124.702 139.564 124.474 140.932 124.018 142.224C123.562 143.491 122.904 144.605 122.042 145.568C121.181 146.531 120.155 147.291 118.964 147.848C117.774 148.405 116.444 148.684 114.974 148.684C113.48 148.684 112.086 148.367 110.794 147.734C109.502 147.101 108.438 146.087 107.602 144.694C106.766 143.301 106.298 141.489 106.196 139.26L107.868 142.072V155.6H103.422ZM114.024 144.846C115.266 144.846 116.355 144.555 117.292 143.972C118.23 143.364 118.952 142.528 119.458 141.464C119.99 140.375 120.256 139.133 120.256 137.74C120.256 136.347 119.99 135.118 119.458 134.054C118.952 132.99 118.23 132.167 117.292 131.584C116.38 130.976 115.291 130.672 114.024 130.672C112.91 130.672 111.871 130.925 110.908 131.432C109.946 131.939 109.173 132.673 108.59 133.636C108.008 134.573 107.716 135.713 107.716 137.056V138.69C107.716 139.982 108.008 141.097 108.59 142.034C109.198 142.946 109.984 143.643 110.946 144.124C111.909 144.605 112.935 144.846 114.024 144.846ZM136.837 148.608C134.43 148.608 132.581 147.835 131.289 146.29C129.997 144.719 129.351 142.414 129.351 139.374V127.518H133.797V139.982C133.797 141.401 134.19 142.528 134.975 143.364C135.76 144.175 136.824 144.58 138.167 144.58C139.535 144.58 140.65 144.149 141.511 143.288C142.398 142.401 142.841 141.198 142.841 139.678V127.518H147.287V148H143.753V139.26H144.209C144.209 141.312 143.93 143.035 143.373 144.428C142.841 145.796 142.043 146.835 140.979 147.544C139.94 148.253 138.623 148.608 137.027 148.608H136.837ZM153.891 148V127.518H157.425V136.068H157.273C157.273 133.129 157.919 130.938 159.211 129.494C160.503 128.025 162.416 127.29 164.949 127.29H165.671V131.204H164.303C162.378 131.204 160.896 131.723 159.857 132.762C158.844 133.775 158.337 135.232 158.337 137.132V148H153.891ZM169.625 148V127.518H173.159V136.296H172.741C172.741 134.269 173.007 132.559 173.539 131.166C174.097 129.773 174.933 128.721 176.047 128.012C177.162 127.277 178.543 126.91 180.189 126.91H180.379C182.913 126.91 184.8 127.708 186.041 129.304C187.283 130.9 187.903 133.231 187.903 136.296V148H183.457V135.688C183.457 134.269 183.052 133.129 182.241 132.268C181.431 131.381 180.316 130.938 178.897 130.938C177.453 130.938 176.288 131.394 175.401 132.306C174.515 133.193 174.071 134.383 174.071 135.878V148H169.625ZM206.431 148V141.882H205.709V134.966C205.709 133.699 205.379 132.737 204.721 132.078C204.062 131.419 203.087 131.09 201.795 131.09C201.085 131.09 200.3 131.103 199.439 131.128C198.577 131.153 197.729 131.191 196.893 131.242C196.082 131.267 195.36 131.305 194.727 131.356V127.518C195.284 127.467 195.892 127.429 196.551 127.404C197.235 127.353 197.931 127.315 198.641 127.29C199.375 127.265 200.072 127.252 200.731 127.252C202.808 127.252 204.531 127.518 205.899 128.05C207.267 128.582 208.28 129.431 208.939 130.596C209.623 131.736 209.965 133.269 209.965 135.194V148H206.431ZM199.781 148.532C198.286 148.532 196.981 148.279 195.867 147.772C194.752 147.24 193.891 146.48 193.283 145.492C192.675 144.479 192.371 143.275 192.371 141.882C192.371 140.413 192.713 139.197 193.397 138.234C194.106 137.271 195.107 136.549 196.398 136.068C197.691 135.587 199.236 135.346 201.035 135.346H206.165V138.272H200.921C199.578 138.272 198.552 138.601 197.843 139.26C197.133 139.893 196.779 140.729 196.779 141.768C196.779 142.807 197.133 143.643 197.843 144.276C198.552 144.884 199.578 145.188 200.921 145.188C201.706 145.188 202.453 145.049 203.163 144.77C203.872 144.466 204.455 143.972 204.911 143.288C205.392 142.604 205.658 141.641 205.709 140.4L206.849 141.882C206.722 143.326 206.367 144.542 205.785 145.53C205.227 146.493 204.442 147.24 203.429 147.772C202.441 148.279 201.225 148.532 199.781 148.532Z" fill="white"/>
<g clip-path="url(#clip0_850_2)">
<path d="M103.111 99.8105C93.7717 88.8299 73 62.2165 73 47.2678C73 29.1311 88.3793 14.4287 107.351 14.4287C126.316 14.4287 141.702 29.1311 141.702 47.2678C141.702 62.2165 120.769 88.8299 111.591 99.8105C109.391 102.427 105.312 102.427 103.111 99.8105V99.8105ZM107.351 58.2142C113.667 58.2142 118.801 53.3055 118.801 47.2678C118.801 41.2302 113.667 36.3215 107.351 36.3215C101.036 36.3215 95.9007 41.2302 95.9007 47.2678C95.9007 53.3055 101.036 58.2142 107.351 58.2142Z" fill="#FF5F26"/>
<rect x="131" y="24" width="29" height="31.1481" rx="14.5" fill="black"/>
</g>
<rect x="107.209" width="26.7967" height="25.5907" rx="12.7954" fill="black"/>
<rect x="120.607" y="8.71191" width="26.7967" height="25.6814" rx="12.8407" fill="black"/>
<defs>
<clipPath id="clip0_850_2">
<rect width="68.7022" height="87.571" fill="white" transform="translate(73 14.4287)"/>
</clipPath>
</defs>
</svg>
