<svg width="483" height="661" viewBox="0 0 483 661" fill="none" xmlns="http://www.w3.org/2000/svg">
<g clip-path="url(#clip0_806_299)">
<path d="M195.13 646.812C134.609 575.654 0 403.189 0 306.315C0 188.782 99.6638 93.5049 222.609 93.5049C345.507 93.5049 445.217 188.782 445.217 306.315C445.217 403.189 309.565 575.654 250.087 646.812C235.826 663.771 209.391 663.771 195.13 646.812V646.812ZM222.609 377.252C263.536 377.252 296.812 345.442 296.812 306.315C296.812 267.189 263.536 235.379 222.609 235.379C181.681 235.379 148.406 267.189 148.406 306.315C148.406 345.442 181.681 377.252 222.609 377.252Z" fill="#FF5F26"/>
<rect x="375.863" y="155.531" width="187.932" height="201.852" rx="93.9658" fill="black"/>
</g>
<rect x="221.688" width="173.653" height="165.838" rx="82.919" fill="black"/>
<rect x="308.517" y="56.4561" width="173.653" height="166.426" rx="83.213" fill="black"/>
<defs>
<clipPath id="clip0_806_299">
<rect width="445.217" height="567.495" fill="white" transform="translate(0 93.5049)"/>
</clipPath>
</defs>
</svg>
