<svg width="43" height="43" viewBox="0 0 43 43" fill="none" xmlns="http://www.w3.org/2000/svg">
<path d="M29.9558 35.389L28.8091 26.2085C28.6466 24.9081 28.0147 23.712 27.0321 22.8449C26.0495 21.9778 24.784 21.4995 23.4735 21.5H19.5247C18.2149 21.5004 16.9502 21.979 15.9684 22.846C14.9866 23.7131 14.3551 24.9088 14.1927 26.2085L13.0443 35.389C12.9812 35.8934 13.0262 36.4054 13.1763 36.891C13.3263 37.3767 13.5779 37.8249 13.9145 38.2058C14.251 38.5867 14.6647 38.8917 15.1282 39.1005C15.5916 39.3093 16.0942 39.417 16.6025 39.4167H26.3993C26.9075 39.4168 27.4098 39.3088 27.8731 39.0999C28.3363 38.8911 28.7498 38.586 29.0862 38.2051C29.4225 37.8242 29.674 37.3761 29.8239 36.8906C29.9739 36.4051 30.0188 35.8932 29.9558 35.389V35.389Z" stroke="white" stroke-width="2" stroke-linecap="round" stroke-linejoin="round"/>
<path d="M21.5 14.333C24.4685 14.333 26.875 11.9265 26.875 8.95801C26.875 5.98948 24.4685 3.58301 21.5 3.58301C18.5315 3.58301 16.125 5.98948 16.125 8.95801C16.125 11.9265 18.5315 14.333 21.5 14.333Z" stroke="white" stroke-width="2"/>
<path d="M7.16732 19.7077C9.14634 19.7077 10.7507 18.1034 10.7507 16.1243C10.7507 14.1453 9.14634 12.541 7.16732 12.541C5.1883 12.541 3.58398 14.1453 3.58398 16.1243C3.58398 18.1034 5.1883 19.7077 7.16732 19.7077Z" stroke="white" stroke-width="2"/>
<path d="M35.8333 19.7077C37.8124 19.7077 39.4167 18.1034 39.4167 16.1243C39.4167 14.1453 37.8124 12.541 35.8333 12.541C33.8543 12.541 32.25 14.1453 32.25 16.1243C32.25 18.1034 33.8543 19.7077 35.8333 19.7077Z" stroke="white" stroke-width="2"/>
<path d="M7.16713 25.083H6.61888C5.77063 25.0829 4.94986 25.3837 4.30257 25.9319C3.65528 26.4801 3.22345 27.2402 3.08392 28.0769L2.48729 31.6602C2.40167 32.1736 2.42892 32.6995 2.56715 33.2013C2.70537 33.7031 2.95125 34.1687 3.28768 34.5659C3.62411 34.963 4.04302 35.2821 4.51527 35.5009C4.98752 35.7197 5.50177 35.8331 6.02225 35.833H12.5421M35.8338 25.083H36.382C37.2303 25.0829 38.0511 25.3837 38.6984 25.9319C39.3456 26.4801 39.7775 27.2402 39.917 28.0769L40.5136 31.6602C40.5992 32.1736 40.572 32.6995 40.4338 33.2013C40.2956 33.7031 40.0497 34.1687 39.7132 34.5659C39.3768 34.963 38.9579 35.2821 38.4857 35.5009C38.0134 35.7197 37.4992 35.8331 36.9787 35.833H30.4588" stroke="white" stroke-width="2" stroke-linecap="round" stroke-linejoin="round"/>
</svg>
