<svg width="43" height="43" viewBox="0 0 43 43" fill="none" xmlns="http://www.w3.org/2000/svg">
<path d="M36.0504 32.0652C35.2583 30.1889 34.1087 28.4846 32.6658 27.0472C31.2273 25.6056 29.5233 24.4563 27.6478 23.6626C27.631 23.6542 27.6142 23.65 27.5974 23.6416C30.2135 21.752 31.9142 18.6739 31.9142 15.2012C31.9142 9.44824 27.253 4.78711 21.5001 4.78711C15.7472 4.78711 11.086 9.44824 11.086 15.2012C11.086 18.6739 12.7867 21.752 15.4028 23.6458C15.386 23.6542 15.3692 23.6584 15.3524 23.6668C13.4712 24.4604 11.7831 25.5984 10.3344 27.0514C8.89283 28.4899 7.74348 30.1939 6.94981 32.0694C6.17011 33.9056 5.7496 35.8741 5.71104 37.8686C5.70992 37.9134 5.71778 37.958 5.73416 37.9997C5.75054 38.0414 5.77511 38.0795 5.80642 38.1115C5.83772 38.1436 5.87514 38.1691 5.91645 38.1865C5.95777 38.2039 6.00215 38.2129 6.04698 38.2129H8.56651C8.75128 38.2129 8.89825 38.0659 8.90245 37.8854C8.98643 34.6436 10.2882 31.6075 12.5894 29.3063C14.9703 26.9254 18.1323 25.6152 21.5001 25.6152C24.8679 25.6152 28.0299 26.9254 30.4108 29.3063C32.712 31.6075 34.0138 34.6436 34.0978 37.8854C34.102 38.0701 34.2489 38.2129 34.4337 38.2129H36.9532C36.9981 38.2129 37.0424 38.2039 37.0838 38.1865C37.1251 38.1691 37.1625 38.1436 37.1938 38.1115C37.2251 38.0795 37.2497 38.0414 37.266 37.9997C37.2824 37.958 37.2903 37.9134 37.2892 37.8686C37.2472 35.8613 36.8314 33.9087 36.0504 32.0652ZM21.5001 22.4238C19.5727 22.4238 17.7586 21.6722 16.3939 20.3074C15.0291 18.9427 14.2774 17.1286 14.2774 15.2012C14.2774 13.2737 15.0291 11.4597 16.3939 10.0949C17.7586 8.73018 19.5727 7.97852 21.5001 7.97852C23.4275 7.97852 25.2416 8.73018 26.6063 10.0949C27.9711 11.4597 28.7228 13.2737 28.7228 15.2012C28.7228 17.1286 27.9711 18.9427 26.6063 20.3074C25.2416 21.6722 23.4275 22.4238 21.5001 22.4238Z" fill="white"/>
</svg>
