<svg width="51" height="69" viewBox="0 0 51 69" fill="none" xmlns="http://www.w3.org/2000/svg">
<g clip-path="url(#clip0_811_233)">
<path d="M20.3692 67.5186C14.0515 60.0906 0 42.0874 0 31.975C0 19.706 10.4037 9.76025 23.2376 9.76025C36.0666 9.76025 46.4751 19.706 46.4751 31.975C46.4751 42.0874 32.3147 60.0906 26.106 67.5186C24.6173 69.2889 21.8578 69.2889 20.3692 67.5186ZM23.2376 39.3799C27.5099 39.3799 30.9834 36.0593 30.9834 31.975C30.9834 27.8907 27.5099 24.5701 23.2376 24.5701C18.9652 24.5701 15.4917 27.8907 15.4917 31.975C15.4917 36.0593 18.9652 39.3799 23.2376 39.3799Z" fill="#FF5F26"/>
<rect x="39.2354" y="16.2349" width="19.6177" height="21.0709" rx="9.80885" fill="black"/>
</g>
<rect x="23.1416" width="18.1272" height="17.3114" rx="8.6557" fill="black"/>
<rect x="32.2051" y="5.89307" width="18.1272" height="17.3728" rx="8.68639" fill="black"/>
<defs>
<clipPath id="clip0_811_233">
<rect width="46.4751" height="59.2394" fill="white" transform="translate(0 9.76025)"/>
</clipPath>
</defs>
</svg>
