<svg width="24" height="30" viewBox="0 0 24 30" fill="none" xmlns="http://www.w3.org/2000/svg">
<path d="M10.3421 29.3259C7.13441 25.5544 0 16.4136 0 11.2792C0 5.04979 5.28229 0 11.7985 0C18.3123 0 23.597 5.04979 23.597 11.2792C23.597 16.4136 16.4073 25.5544 13.2549 29.3259C12.499 30.2247 11.098 30.2247 10.3421 29.3259ZM11.7985 15.0389C13.9677 15.0389 15.7313 13.3529 15.7313 11.2792C15.7313 9.20546 13.9677 7.51946 11.7985 7.51946C9.6293 7.51946 7.86567 9.20546 7.86567 11.2792C7.86567 13.3529 9.6293 15.0389 11.7985 15.0389Z" fill="#FF5F26"/>
</svg>
