<svg width="88" height="88" viewBox="0 0 88 88" fill="none" xmlns="http://www.w3.org/2000/svg">
<rect width="88" height="88" rx="44" fill="white"/>
<path d="M40.702 36.08V40.604H39.31C38.1887 40.604 37.2993 40.778 36.642 41.126C35.9847 41.474 35.5013 42.0733 35.192 42.924C34.8827 43.736 34.728 44.838 34.728 46.23V50.522L33.046 47.274C33.3167 47.0807 33.7033 46.926 34.206 46.81C34.7087 46.6553 35.2307 46.578 35.772 46.578C37.048 46.578 38.1113 46.984 38.962 47.796C39.8127 48.5693 40.238 49.652 40.238 51.044C40.238 52.3587 39.832 53.48 39.02 54.408C38.208 55.2973 37.048 55.742 35.54 55.742C34.5733 55.742 33.6647 55.5293 32.814 55.104C32.002 54.64 31.3447 53.8667 30.842 52.784C30.3393 51.6627 30.088 50.1353 30.088 48.202V47.216C30.088 44.4707 30.4553 42.286 31.19 40.662C31.9633 39.038 33.0653 37.878 34.496 37.182C35.9267 36.4473 37.6667 36.08 39.716 36.08H40.702ZM55.825 36.08V40.604H54.433C53.3117 40.604 52.4224 40.778 51.765 41.126C51.1077 41.474 50.6244 42.0733 50.315 42.924C50.0057 43.736 49.851 44.838 49.851 46.23V50.522L48.169 47.274C48.4397 47.0807 48.8264 46.926 49.329 46.81C49.8317 46.6553 50.3537 46.578 50.895 46.578C52.171 46.578 53.2344 46.984 54.085 47.796C54.9357 48.5693 55.361 49.652 55.361 51.044C55.361 52.3587 54.955 53.48 54.143 54.408C53.331 55.2973 52.171 55.742 50.663 55.742C49.6964 55.742 48.7877 55.5293 47.937 55.104C47.125 54.64 46.4677 53.8667 45.965 52.784C45.4624 51.6627 45.211 50.1353 45.211 48.202V47.216C45.211 44.4707 45.5784 42.286 46.313 40.662C47.0864 39.038 48.1884 37.878 49.619 37.182C51.0497 36.4473 52.7897 36.08 54.839 36.08H55.825Z" fill="black"/>
</svg>
