<?xml version="1.0" encoding="iso-8859-1"?>
<!-- Generator: Adobe Illustrator 19.0.0, SVG Export Plug-In . SVG Version: 6.00 Build 0)  -->
<svg version="1.1" id="Layer_1" xmlns="http://www.w3.org/2000/svg" xmlns:xlink="http://www.w3.org/1999/xlink" x="0px" y="0px"
	 viewBox="0 0 512 512" style="enable-background:new 0 0 512 512;" xml:space="preserve">
<g>
	<g>
		<path d="M509.353,298.028L275.837,64.511c-0.002-0.002-0.004-0.004-0.006-0.006c-0.002-0.002-0.004-0.004-0.006-0.006
			L213.972,2.647c-3.528-3.53-9.249-3.529-12.778,0l-42.972,42.972c-2.317,2.316-3.198,5.705-2.304,8.857
			c8.13,28.648,0.117,59.507-20.911,80.534c-15.5,15.5-36.11,24.037-58.033,24.037c-7.622,0-15.191-1.052-22.501-3.126
			c-3.148-0.894-6.54-0.013-8.857,2.304L2.647,201.194c-3.529,3.529-3.529,9.25,0,12.778l61.852,61.852
			c0.002,0.002,0.004,0.004,0.006,0.006c0.002,0.002,0.004,0.004,0.006,0.006l233.517,233.517c1.764,1.765,4.077,2.647,6.389,2.647
			c2.312,0,4.625-0.882,6.389-2.647l42.972-42.972c2.317-2.316,3.198-5.705,2.304-8.857c-8.13-28.647-0.118-59.505,20.911-80.534
			c15.5-15.5,36.11-24.037,58.033-24.037c7.622,0,15.191,1.052,22.501,3.126c3.153,0.896,6.541,0.014,8.857-2.304l42.972-42.972
			C512.882,307.278,512.882,301.557,509.353,298.028z M457.238,337.365c-7.277-1.648-14.725-2.482-22.213-2.482
			c-26.75,0-51.898,10.417-70.811,29.33c-24.384,24.383-34.425,59.594-26.849,93.025l-32.948,32.947L83.674,269.442l8.519-8.519
			c3.529-3.529,3.529-9.25,0-12.778c-3.529-3.529-9.25-3.529-12.778,0l-8.519,8.519l-49.08-49.08l32.948-32.948
			c7.277,1.648,14.725,2.482,22.213,2.482c26.75,0,51.899-10.417,70.811-29.33c24.383-24.383,34.425-59.593,26.849-93.024
			l32.948-32.948l49.08,49.08l-8.519,8.519c-3.529,3.529-3.529,9.25,0,12.778c1.764,1.764,4.077,2.647,6.389,2.647
			c2.312,0,4.625-0.882,6.389-2.647l8.519-8.519l220.743,220.743L457.238,337.365z"/>
	</g>
</g>
<g>
	<g>
		<path d="M417.006,281.553L267.994,132.541c-3.529-3.529-9.25-3.529-12.778,0L132.541,255.215c-3.529,3.529-3.529,9.25,0,12.778
			l149.013,149.013c1.764,1.764,4.077,2.647,6.389,2.647s4.625-0.882,6.389-2.647l122.674-122.674
			C420.535,290.803,420.535,285.081,417.006,281.553z M287.942,397.839L151.709,261.604l109.896-109.896l136.233,136.234
			L287.942,397.839z"/>
	</g>
</g>
<g>
	<g>
		<path d="M337.249,276.463l-27.553-19.484l0.431-33.743c0.045-3.439-1.869-6.605-4.934-8.166c-3.064-1.563-6.75-1.248-9.506,0.81
			l-27.045,20.182l-31.957-10.837c-3.258-1.102-6.86-0.264-9.293,2.169s-3.272,6.034-2.167,9.291l10.837,31.957l-20.182,27.045
			c-2.058,2.757-2.371,6.442-0.81,9.506c1.561,3.064,4.74,4.978,8.166,4.934l33.743-0.431l19.484,27.553
			c1.71,2.417,4.472,3.818,7.377,3.818c0.469,0,0.942-0.036,1.414-0.111c3.398-0.539,6.194-2.958,7.216-6.243l10.017-32.225
			l32.225-10.017c3.285-1.022,5.705-3.818,6.243-7.216S340.056,278.45,337.249,276.463z M292.587,286.639
			c-2.84,0.883-5.064,3.107-5.947,5.947l-5.992,19.277l-11.655-16.482c-1.695-2.396-4.447-3.818-7.377-3.818
			c-0.039,0-0.077,0-0.117,0l-20.185,0.258l12.073-16.179c1.778-2.382,2.27-5.488,1.314-8.305l-6.483-19.118l19.118,6.483
			c2.816,0.954,5.923,0.464,8.306-1.316l16.179-12.073l-0.258,20.185c-0.037,2.975,1.39,5.776,3.818,7.494l16.482,11.655
			L292.587,286.639z"/>
	</g>
</g>
<g>
	<g>
		<path d="M227.176,113.161c-3.529-3.529-9.25-3.529-12.778,0l-33.745,33.745c-3.529,3.529-3.529,9.25,0,12.778
			c1.764,1.764,4.077,2.647,6.389,2.647c2.312,0,4.625-0.882,6.389-2.647l33.745-33.745
			C230.705,122.411,230.705,116.689,227.176,113.161z"/>
	</g>
</g>
<g>
	<g>
		<path d="M159.685,180.652c-3.529-3.529-9.25-3.529-12.778,0l-33.745,33.745c-3.529,3.529-3.529,9.25,0,12.778
			c1.764,1.764,4.077,2.647,6.389,2.647c2.312,0,4.625-0.882,6.389-2.647l33.745-33.745
			C163.214,189.903,163.214,184.181,159.685,180.652z"/>
	</g>
</g>
<g>
</g>
<g>
</g>
<g>
</g>
<g>
</g>
<g>
</g>
<g>
</g>
<g>
</g>
<g>
</g>
<g>
</g>
<g>
</g>
<g>
</g>
<g>
</g>
<g>
</g>
<g>
</g>
<g>
</g>
</svg>
